<mxfile host="app.diagrams.net" modified="2023-03-14T08:52:06.529Z" agent="5.0 (Macintosh; Intel Mac OS X 10_15_7) AppleWebKit/537.36 (KHTML, like Gecko) Chrome/110.0.0.0 Safari/537.36" etag="l1N-B40K9p66ZOwzfRyd" version="20.8.20" type="github">
  <diagram name="第 1 页" id="60c5mNMKsC4QTdARFrWQ">
    <mxGraphModel dx="954" dy="515" grid="1" gridSize="10" guides="1" tooltips="1" connect="1" arrows="1" fold="1" page="1" pageScale="1" pageWidth="827" pageHeight="1169" math="0" shadow="0">
      <root>
        <mxCell id="0" />
        <mxCell id="1" parent="0" />
        <mxCell id="CrxC6nG28Qfyfs1FUJR5-3" value="" style="edgeStyle=orthogonalEdgeStyle;rounded=0;orthogonalLoop=1;jettySize=auto;html=1;" edge="1" parent="1" source="CrxC6nG28Qfyfs1FUJR5-1" target="CrxC6nG28Qfyfs1FUJR5-2">
          <mxGeometry relative="1" as="geometry" />
        </mxCell>
        <mxCell id="CrxC6nG28Qfyfs1FUJR5-6" style="edgeStyle=orthogonalEdgeStyle;rounded=0;orthogonalLoop=1;jettySize=auto;html=1;exitX=0;exitY=1;exitDx=0;exitDy=0;" edge="1" parent="1" source="CrxC6nG28Qfyfs1FUJR5-1" target="CrxC6nG28Qfyfs1FUJR5-4">
          <mxGeometry relative="1" as="geometry">
            <Array as="points">
              <mxPoint x="320" y="140" />
              <mxPoint x="200" y="140" />
            </Array>
          </mxGeometry>
        </mxCell>
        <mxCell id="CrxC6nG28Qfyfs1FUJR5-11" style="edgeStyle=orthogonalEdgeStyle;rounded=0;orthogonalLoop=1;jettySize=auto;html=1;" edge="1" parent="1" source="CrxC6nG28Qfyfs1FUJR5-1" target="CrxC6nG28Qfyfs1FUJR5-5">
          <mxGeometry relative="1" as="geometry" />
        </mxCell>
        <mxCell id="CrxC6nG28Qfyfs1FUJR5-1" value="risk-insight" style="rounded=1;whiteSpace=wrap;html=1;fillColor=#d5e8d4;strokeColor=#82b366;" vertex="1" parent="1">
          <mxGeometry x="270" y="100" width="120" height="60" as="geometry" />
        </mxCell>
        <mxCell id="CrxC6nG28Qfyfs1FUJR5-10" value="" style="edgeStyle=orthogonalEdgeStyle;rounded=0;orthogonalLoop=1;jettySize=auto;html=1;" edge="1" parent="1" source="CrxC6nG28Qfyfs1FUJR5-2" target="CrxC6nG28Qfyfs1FUJR5-8">
          <mxGeometry relative="1" as="geometry" />
        </mxCell>
        <mxCell id="CrxC6nG28Qfyfs1FUJR5-2" value="insight-web" style="whiteSpace=wrap;html=1;rounded=1;fillColor=#f5f5f5;gradientColor=#b3b3b3;strokeColor=#666666;" vertex="1" parent="1">
          <mxGeometry x="285" y="200" width="90" height="40" as="geometry" />
        </mxCell>
        <mxCell id="CrxC6nG28Qfyfs1FUJR5-4" value="insight-api" style="whiteSpace=wrap;html=1;rounded=1;fillColor=#f5f5f5;gradientColor=#b3b3b3;strokeColor=#666666;" vertex="1" parent="1">
          <mxGeometry x="150" y="200" width="90" height="40" as="geometry" />
        </mxCell>
        <mxCell id="CrxC6nG28Qfyfs1FUJR5-5" value="insight-common" style="whiteSpace=wrap;html=1;rounded=1;fillColor=#dae8fc;gradientColor=#7ea6e0;strokeColor=#6c8ebf;" vertex="1" parent="1">
          <mxGeometry x="400" y="200" width="96" height="40" as="geometry" />
        </mxCell>
        <mxCell id="CrxC6nG28Qfyfs1FUJR5-8" value="insight-service" style="whiteSpace=wrap;html=1;rounded=1;fillColor=#f5f5f5;gradientColor=#b3b3b3;strokeColor=#666666;" vertex="1" parent="1">
          <mxGeometry x="285" y="290" width="90" height="40" as="geometry" />
        </mxCell>
        <mxCell id="CrxC6nG28Qfyfs1FUJR5-14" style="edgeStyle=orthogonalEdgeStyle;rounded=0;orthogonalLoop=1;jettySize=auto;html=1;entryX=0.75;entryY=0;entryDx=0;entryDy=0;" edge="1" parent="1" source="CrxC6nG28Qfyfs1FUJR5-12" target="CrxC6nG28Qfyfs1FUJR5-5">
          <mxGeometry relative="1" as="geometry" />
        </mxCell>
        <mxCell id="CrxC6nG28Qfyfs1FUJR5-19" value="compile" style="edgeLabel;html=1;align=center;verticalAlign=middle;resizable=0;points=[];" vertex="1" connectable="0" parent="CrxC6nG28Qfyfs1FUJR5-14">
          <mxGeometry x="0.2373" y="-3" relative="1" as="geometry">
            <mxPoint as="offset" />
          </mxGeometry>
        </mxCell>
        <mxCell id="CrxC6nG28Qfyfs1FUJR5-12" value="insight-flink" style="rounded=1;whiteSpace=wrap;html=1;fillColor=#d5e8d4;strokeColor=#82b366;" vertex="1" parent="1">
          <mxGeometry x="520" y="100" width="120" height="60" as="geometry" />
        </mxCell>
        <mxCell id="CrxC6nG28Qfyfs1FUJR5-13" value="insight-flink-common" style="rounded=1;whiteSpace=wrap;html=1;fillColor=#d5e8d4;strokeColor=#82b366;" vertex="1" parent="1">
          <mxGeometry x="720" y="100" width="140" height="60" as="geometry" />
        </mxCell>
        <mxCell id="CrxC6nG28Qfyfs1FUJR5-15" value="各flink作业逻辑代码" style="text;html=1;strokeColor=#d6b656;fillColor=#fff2cc;align=center;verticalAlign=middle;whiteSpace=wrap;rounded=0;" vertex="1" parent="1">
          <mxGeometry x="560" y="170" width="60" height="30" as="geometry" />
        </mxCell>
        <mxCell id="CrxC6nG28Qfyfs1FUJR5-16" value="减少jar的大小一些通用的connectors和依赖包统一打包放到镜像中" style="text;html=1;strokeColor=#d6b656;fillColor=#fff2cc;align=center;verticalAlign=middle;whiteSpace=wrap;rounded=0;" vertex="1" parent="1">
          <mxGeometry x="730" y="190" width="120" height="60" as="geometry" />
        </mxCell>
        <mxCell id="CrxC6nG28Qfyfs1FUJR5-17" value="" style="endArrow=none;dashed=1;html=1;dashPattern=1 3;strokeWidth=2;rounded=0;exitX=1;exitY=0.5;exitDx=0;exitDy=0;" edge="1" parent="1" source="CrxC6nG28Qfyfs1FUJR5-12" target="CrxC6nG28Qfyfs1FUJR5-13">
          <mxGeometry width="50" height="50" relative="1" as="geometry">
            <mxPoint x="630" y="160" as="sourcePoint" />
            <mxPoint x="680" y="110" as="targetPoint" />
          </mxGeometry>
        </mxCell>
        <mxCell id="CrxC6nG28Qfyfs1FUJR5-18" value="provided" style="edgeLabel;html=1;align=center;verticalAlign=middle;resizable=0;points=[];" vertex="1" connectable="0" parent="CrxC6nG28Qfyfs1FUJR5-17">
          <mxGeometry x="-0.5" y="-1" relative="1" as="geometry">
            <mxPoint x="20" y="-1" as="offset" />
          </mxGeometry>
        </mxCell>
        <mxCell id="CrxC6nG28Qfyfs1FUJR5-20" value="后台应用和flink任务公用的一些工具类或者beans" style="text;html=1;strokeColor=#d6b656;fillColor=#fff2cc;align=center;verticalAlign=middle;whiteSpace=wrap;rounded=0;" vertex="1" parent="1">
          <mxGeometry x="405" y="260" width="86" height="60" as="geometry" />
        </mxCell>
      </root>
    </mxGraphModel>
  </diagram>
</mxfile>
